<svg xmlns="http://www.w3.org/2000/svg" xmlns:xlink="http://www.w3.org/1999/xlink" contentStyleType="text/css" data-diagram-type="DESCRIPTION" height="287px" preserveAspectRatio="none" style="width:951px;height:287px;background:#FFFFFF;" version="1.1" viewBox="0 0 951 287" width="951px" zoomAndPan="magnify"><defs/><g><!--cluster ????--><g class="cluster" data-entity="...." data-source-line="5" data-uid="ent0004" id="cluster_...."><rect fill="none" height="174" rx="2.5" ry="2.5" style="stroke:#181818;stroke-width:1;" width="938" x="7" y="107.5"/><text fill="#000000" font-family="SimHei" font-size="14" font-weight="bold" lengthAdjust="spacing" textLength="59.0625" x="446.4688" y="124.4844">&#21518;&#31471;&#24179;&#21488;</text></g><!--entity UC1--><g class="entity" data-entity="UC1" data-source-line="6" data-uid="ent0005" id="entity_UC1"><ellipse cx="246.9461" cy="156.5892" fill="#F1F1F1" rx="60.9461" ry="14.5892" style="stroke:#181818;stroke-width:0.5;"/><text fill="#000000" font-family="SimHei" font-size="14" lengthAdjust="spacing" textLength="84" x="204.9461" y="161.0736">&#32500;&#25252;&#29992;&#25143;&#20250;&#35805;</text></g><!--entity UC2--><g class="entity" data-entity="UC2" data-source-line="7" data-uid="ent0006" id="entity_UC2"><ellipse cx="87.031" cy="156.6062" fill="#F1F1F1" rx="63.531" ry="15.1062" style="stroke:#181818;stroke-width:0.5;"/><text fill="#000000" font-family="SimHei" font-size="14" lengthAdjust="spacing" textLength="91" x="41.531" y="161.0906">&#36335;&#30001; API &#35831;&#27714;</text></g><!--entity UC3--><g class="entity" data-entity="UC3" data-source-line="8" data-uid="ent0007" id="entity_UC3"><ellipse cx="94.7732" cy="248.2546" fill="#F1F1F1" rx="71.7732" ry="16.7546" style="stroke:#181818;stroke-width:0.5;"/><text fill="#000000" font-family="SimHei" font-size="14" lengthAdjust="spacing" textLength="112" x="38.7732" y="252.739">&#23384;&#20648;&#25968;&#25454;&#21040;&#25968;&#25454;&#24211;</text></g><!--entity UC4--><g class="entity" data-entity="UC4" data-source-line="9" data-uid="ent0008" id="entity_UC4"><ellipse cx="262.9461" cy="248.5892" fill="#F1F1F1" rx="60.9461" ry="14.5892" style="stroke:#181818;stroke-width:0.5;"/><text fill="#000000" font-family="SimHei" font-size="14" lengthAdjust="spacing" textLength="84" x="220.9461" y="253.0736">&#35843;&#29992; AI &#26381;&#21153;</text></g><!--entity UC5--><g class="entity" data-entity="UC5" data-source-line="10" data-uid="ent0009" id="entity_UC5"><ellipse cx="635.9975" cy="156.2916" fill="#F1F1F1" rx="52.4975" ry="14.2916" style="stroke:#181818;stroke-width:0.5;"/><text fill="#000000" font-family="SimHei" font-size="14" lengthAdjust="spacing" textLength="70" x="600.9975" y="160.776">&#31649;&#29702;&#29366;&#24577;&#26426;</text></g><!--entity UC6--><g class="entity" data-entity="UC6" data-source-line="11" data-uid="ent0010" id="entity_UC6"><ellipse cx="506.098" cy="156.2916" fill="#F1F1F1" rx="42.598" ry="14.2916" style="stroke:#181818;stroke-width:0.5;"/><text fill="#000000" font-family="SimHei" font-size="14" lengthAdjust="spacing" textLength="56" x="478.098" y="160.776">&#21019;&#24314;&#31185;&#23460;</text></g><!--entity UC7--><g class="entity" data-entity="UC7" data-source-line="12" data-uid="ent0011" id="entity_UC7"><ellipse cx="386.098" cy="156.2916" fill="#F1F1F1" rx="42.598" ry="14.2916" style="stroke:#181818;stroke-width:0.5;"/><text fill="#000000" font-family="SimHei" font-size="14" lengthAdjust="spacing" textLength="56" x="358.098" y="160.776">&#33719;&#21462;&#31185;&#23460;</text></g><!--entity UC8--><g class="entity" data-entity="UC8" data-source-line="13" data-uid="ent0012" id="entity_UC8"><ellipse cx="886.098" cy="156.2916" fill="#F1F1F1" rx="42.598" ry="14.2916" style="stroke:#181818;stroke-width:0.5;"/><text fill="#000000" font-family="SimHei" font-size="14" lengthAdjust="spacing" textLength="56" x="858.098" y="160.776">&#20462;&#25913;&#31185;&#23460;</text></g><!--entity UC9--><g class="entity" data-entity="UC9" data-source-line="14" data-uid="ent0013" id="entity_UC9"><ellipse cx="766.098" cy="156.2916" fill="#F1F1F1" rx="42.598" ry="14.2916" style="stroke:#181818;stroke-width:0.5;"/><text fill="#000000" font-family="SimHei" font-size="14" lengthAdjust="spacing" textLength="56" x="738.098" y="160.776">&#21024;&#38500;&#31185;&#23460;</text></g><!--entity U--><g class="entity" data-entity="U" data-source-line="2" data-uid="ent0002" id="entity_U"><ellipse cx="167" cy="14" fill="#F1F1F1" rx="8" ry="8" style="stroke:#181818;stroke-width:0.5;"/><path d="M167,22 L167,49 M154,30 L180,30 M167,49 L154,64 M167,49 L180,64" fill="none" style="stroke:#181818;stroke-width:0.5;"/><text fill="#000000" font-family="SimHei" font-size="14" lengthAdjust="spacing" textLength="28" x="153" y="80.4844">User</text></g><!--entity A--><g class="entity" data-entity="A" data-source-line="3" data-uid="ent0003" id="entity_A"><ellipse cx="636" cy="14" fill="#F1F1F1" rx="8" ry="8" style="stroke:#181818;stroke-width:0.5;"/><path d="M636,22 L636,49 M623,30 L649,30 M636,49 L623,64 M636,49 L649,64" fill="none" style="stroke:#181818;stroke-width:0.5;"/><text fill="#000000" font-family="SimHei" font-size="14" lengthAdjust="spacing" textLength="35" x="618.5" y="80.4844">Admin</text></g><!--link U to UC1--><g class="link" data-entity-1="U" data-entity-2="UC1" data-source-line="17" data-uid="lnk14" id="link_U_UC1"><path d="M181.12,64.09 C197.27,86.49 219.7727,117.7118 233.7927,137.1718" fill="none" id="U-to-UC1" style="stroke:#181818;stroke-width:1;"/><polygon fill="#181818" points="237.3,142.04,235.2845,132.3996,234.3773,137.9832,228.7936,137.0759,237.3,142.04" style="stroke:#181818;stroke-width:1;"/></g><!--link U to UC2--><g class="link" data-entity-1="U" data-entity-2="UC2" data-source-line="18" data-uid="lnk15" id="link_U_UC2"><path d="M152.88,64.09 C136.91,86.25 114.8088,116.9129 100.6788,136.5129" fill="none" id="U-to-UC2" style="stroke:#181818;stroke-width:1;"/><polygon fill="#181818" points="97.17,141.38,105.6779,136.4186,100.094,137.3241,99.1884,131.7402,97.17,141.38" style="stroke:#181818;stroke-width:1;"/></g><!--link UC2 to UC3--><g class="link" data-entity-1="UC2" data-entity-2="UC3" data-source-line="19" data-uid="lnk16" id="link_UC2_UC3"><path d="M88.25,171.56 C89.69,187.78 91.5301,208.4034 93.0401,225.4334" fill="none" id="UC2-to-UC3" style="stroke:#181818;stroke-width:1;"/><polygon fill="#181818" points="93.57,231.41,96.7595,222.0919,93.1284,226.4295,88.7907,222.7985,93.57,231.41" style="stroke:#181818;stroke-width:1;"/></g><!--link UC2 to UC4--><g class="link" data-entity-1="UC2" data-entity-2="UC4" data-source-line="20" data-uid="lnk17" id="link_UC2_UC4"><path d="M112.22,170.39 C145.96,187.65 200.0581,215.308 233.3381,232.328" fill="none" id="UC2-to-UC4" style="stroke:#181818;stroke-width:1;"/><polygon fill="#181818" points="238.68,235.06,232.4884,227.4008,234.2284,232.7834,228.8458,234.5233,238.68,235.06" style="stroke:#181818;stroke-width:1;"/></g><!--link A to UC5--><g class="link" data-entity-1="A" data-entity-2="UC5" data-source-line="21" data-uid="lnk18" id="link_A_UC5"><path d="M636,81.77 C636,102.43 636,120.88 636,135.78" fill="none" id="A-to-UC5" style="stroke:#181818;stroke-width:1;"/><polygon fill="#181818" points="636,141.78,640,132.78,636,136.78,632,132.78,636,141.78" style="stroke:#181818;stroke-width:1;"/></g><!--link A to UC6--><g class="link" data-entity-1="A" data-entity-2="UC6" data-source-line="22" data-uid="lnk19" id="link_A_UC6"><path d="M618.41,57.66 C604.05,68.56 583.37,84.62 566,99.5 C549.55,113.59 535.7924,126.5183 523.8324,138.0883" fill="none" id="A-to-UC6" style="stroke:#181818;stroke-width:1;"/><polygon fill="#181818" points="519.52,142.26,528.7697,138.8773,523.1136,138.7835,523.2074,133.1275,519.52,142.26" style="stroke:#181818;stroke-width:1;"/></g><!--link A to UC7--><g class="link" data-entity-1="A" data-entity-2="UC7" data-source-line="23" data-uid="lnk20" id="link_A_UC7"><path d="M618.43,46.79 C583.58,51.91 504.08,66.52 446,99.5 C426.42,110.61 412.1108,124.8243 400.9908,137.5343" fill="none" id="A-to-UC7" style="stroke:#181818;stroke-width:1;"/><polygon fill="#181818" points="397.04,142.05,405.9766,137.9103,400.3323,138.2869,399.9557,132.6426,397.04,142.05" style="stroke:#181818;stroke-width:1;"/></g><!--link A to UC8--><g class="link" data-entity-1="A" data-entity-2="UC8" data-source-line="24" data-uid="lnk21" id="link_A_UC8"><path d="M653.57,46.79 C688.42,51.91 767.92,66.52 826,99.5 C845.58,110.61 859.8892,124.8243 871.0092,137.5343" fill="none" id="A-to-UC8" style="stroke:#181818;stroke-width:1;"/><polygon fill="#181818" points="874.96,142.05,872.0443,132.6426,871.6677,138.2869,866.0234,137.9103,874.96,142.05" style="stroke:#181818;stroke-width:1;"/></g><!--link A to UC9--><g class="link" data-entity-1="A" data-entity-2="UC9" data-source-line="25" data-uid="lnk22" id="link_A_UC9"><path d="M653.59,57.66 C667.95,68.56 688.63,84.62 706,99.5 C722.45,113.59 736.2076,126.5183 748.1676,138.0883" fill="none" id="A-to-UC9" style="stroke:#181818;stroke-width:1;"/><polygon fill="#181818" points="752.48,142.26,748.7926,133.1275,748.8864,138.7835,743.2303,138.8773,752.48,142.26" style="stroke:#181818;stroke-width:1;"/></g><!--SRC=[LP3BIiD058RtynI7xhkmzsw488ZTY21zWA4T9TYaagGh4RI2X48lOXKl5Im4B8X9Yc9eAlWodPdu5iOoXinYu9lvViv_6FD8rO-nWJLeaWFSQLdRRTtQnHg1VLNR8Ih23QjjGDqa1c0JwkAkD3LL_tjG4398myBwOOj0Xeu6_DMZYtSwz3DmWW0w9cbWCrPy-S5w3X_Fc1silXuYxocp7hYraKv5WSV7Sr3sQX1v0PjtHIYN3j6tEzgTiHkVzLrg-mB2Qv7DImFzYxWJb1gmIP_sfY9Ja5PpftnqoNkVxEoSJK8HAKgLzYDTXlpbYhgEy2MfPX3GuQtaosc_-dRPU27vYZp_-UVUaNmLdI9KXsnsS_r9_vH3yH6SJt41AOAA2PKIAYTKIQZw2m00]--></g></svg>